<mxfile host="app.diagrams.net" modified="2022-05-24T03:02:25.228Z" agent="5.0 (Windows NT 10.0; Win64; x64) AppleWebKit/537.36 (KHTML, like Gecko) Chrome/97.0.4692.99 Safari/537.36" etag="eh1LCr8B4RNeHpiLZkFn" version="17.0.0" type="github">
  <diagram id="kIvYhlrTY7oGlKLrpEr3" name="spring容器启动过程">
    <mxGraphModel dx="1422" dy="754" grid="1" gridSize="10" guides="1" tooltips="1" connect="1" arrows="1" fold="1" page="1" pageScale="1" pageWidth="827" pageHeight="1169" math="0" shadow="0">
      <root>
        <mxCell id="0" />
        <mxCell id="1" parent="0" />
        <mxCell id="ljPQky6ANAjZu1qQND6i-3" value="" style="edgeStyle=orthogonalEdgeStyle;rounded=0;orthogonalLoop=1;jettySize=auto;html=1;" edge="1" parent="1" source="ljPQky6ANAjZu1qQND6i-1" target="ljPQky6ANAjZu1qQND6i-2">
          <mxGeometry relative="1" as="geometry" />
        </mxCell>
        <mxCell id="ljPQky6ANAjZu1qQND6i-1" value="启动ApplicationContext" style="rounded=1;whiteSpace=wrap;html=1;fillColor=#d5e8d4;strokeColor=#82b366;" vertex="1" parent="1">
          <mxGeometry x="350" y="360" width="120" height="60" as="geometry" />
        </mxCell>
        <mxCell id="ljPQky6ANAjZu1qQND6i-5" value="" style="edgeStyle=orthogonalEdgeStyle;rounded=0;orthogonalLoop=1;jettySize=auto;html=1;fillColor=#f8cecc;strokeColor=#b85450;" edge="1" parent="1" source="ljPQky6ANAjZu1qQND6i-2" target="ljPQky6ANAjZu1qQND6i-4">
          <mxGeometry relative="1" as="geometry" />
        </mxCell>
        <mxCell id="ljPQky6ANAjZu1qQND6i-2" value="创建BeanFactory" style="rounded=1;whiteSpace=wrap;html=1;fillColor=#f8cecc;strokeColor=#b85450;" vertex="1" parent="1">
          <mxGeometry x="350" y="500" width="120" height="60" as="geometry" />
        </mxCell>
        <mxCell id="ljPQky6ANAjZu1qQND6i-7" value="" style="edgeStyle=orthogonalEdgeStyle;rounded=0;orthogonalLoop=1;jettySize=auto;html=1;fillColor=#f8cecc;strokeColor=#b85450;" edge="1" parent="1" source="ljPQky6ANAjZu1qQND6i-4" target="ljPQky6ANAjZu1qQND6i-6">
          <mxGeometry relative="1" as="geometry" />
        </mxCell>
        <mxCell id="ljPQky6ANAjZu1qQND6i-4" value="初始化BeanFactory" style="rounded=1;whiteSpace=wrap;html=1;fillColor=#f8cecc;strokeColor=#b85450;" vertex="1" parent="1">
          <mxGeometry x="350" y="640" width="120" height="60" as="geometry" />
        </mxCell>
        <mxCell id="ljPQky6ANAjZu1qQND6i-9" value="" style="edgeStyle=orthogonalEdgeStyle;rounded=0;orthogonalLoop=1;jettySize=auto;html=1;dashed=1;" edge="1" parent="1" source="ljPQky6ANAjZu1qQND6i-6" target="ljPQky6ANAjZu1qQND6i-8">
          <mxGeometry relative="1" as="geometry" />
        </mxCell>
        <mxCell id="ljPQky6ANAjZu1qQND6i-6" value="执行BeanFactory后置处理器" style="whiteSpace=wrap;html=1;rounded=1;fillColor=#f8cecc;strokeColor=#b85450;" vertex="1" parent="1">
          <mxGeometry x="350" y="780" width="120" height="60" as="geometry" />
        </mxCell>
        <mxCell id="ljPQky6ANAjZu1qQND6i-12" value="" style="edgeStyle=orthogonalEdgeStyle;rounded=0;orthogonalLoop=1;jettySize=auto;html=1;" edge="1" parent="1" source="ljPQky6ANAjZu1qQND6i-8" target="ljPQky6ANAjZu1qQND6i-11">
          <mxGeometry relative="1" as="geometry" />
        </mxCell>
        <mxCell id="ljPQky6ANAjZu1qQND6i-8" value="进行扫描" style="whiteSpace=wrap;html=1;rounded=1;" vertex="1" parent="1">
          <mxGeometry x="350" y="920" width="120" height="60" as="geometry" />
        </mxCell>
        <mxCell id="ljPQky6ANAjZu1qQND6i-10" value="扫描就是在BeanFactory后置&lt;br&gt;处理器过程中进行的" style="text;html=1;align=center;verticalAlign=middle;resizable=0;points=[];autosize=1;strokeColor=default;fillColor=none;rounded=1;dashed=1;" vertex="1" parent="1">
          <mxGeometry x="170" y="930" width="170" height="30" as="geometry" />
        </mxCell>
        <mxCell id="ljPQky6ANAjZu1qQND6i-14" value="" style="edgeStyle=orthogonalEdgeStyle;rounded=0;orthogonalLoop=1;jettySize=auto;html=1;" edge="1" parent="1" source="ljPQky6ANAjZu1qQND6i-11" target="ljPQky6ANAjZu1qQND6i-13">
          <mxGeometry relative="1" as="geometry" />
        </mxCell>
        <mxCell id="ljPQky6ANAjZu1qQND6i-11" value="生成BeanDefintion" style="whiteSpace=wrap;html=1;rounded=1;" vertex="1" parent="1">
          <mxGeometry x="350" y="1060" width="120" height="60" as="geometry" />
        </mxCell>
        <mxCell id="ljPQky6ANAjZu1qQND6i-16" value="" style="edgeStyle=orthogonalEdgeStyle;rounded=0;orthogonalLoop=1;jettySize=auto;html=1;" edge="1" parent="1" source="ljPQky6ANAjZu1qQND6i-13" target="ljPQky6ANAjZu1qQND6i-15">
          <mxGeometry relative="1" as="geometry" />
        </mxCell>
        <mxCell id="ljPQky6ANAjZu1qQND6i-13" value="合并BeanDefinition" style="whiteSpace=wrap;html=1;rounded=1;" vertex="1" parent="1">
          <mxGeometry x="530" y="1060" width="120" height="60" as="geometry" />
        </mxCell>
        <mxCell id="ljPQky6ANAjZu1qQND6i-18" value="" style="edgeStyle=orthogonalEdgeStyle;rounded=0;orthogonalLoop=1;jettySize=auto;html=1;" edge="1" parent="1" source="ljPQky6ANAjZu1qQND6i-15" target="ljPQky6ANAjZu1qQND6i-17">
          <mxGeometry relative="1" as="geometry" />
        </mxCell>
        <mxCell id="ljPQky6ANAjZu1qQND6i-15" value="加载类" style="whiteSpace=wrap;html=1;rounded=1;" vertex="1" parent="1">
          <mxGeometry x="530" y="920" width="120" height="60" as="geometry" />
        </mxCell>
        <mxCell id="ljPQky6ANAjZu1qQND6i-20" value="" style="edgeStyle=orthogonalEdgeStyle;rounded=0;orthogonalLoop=1;jettySize=auto;html=1;" edge="1" parent="1" source="ljPQky6ANAjZu1qQND6i-17" target="ljPQky6ANAjZu1qQND6i-19">
          <mxGeometry relative="1" as="geometry" />
        </mxCell>
        <mxCell id="ljPQky6ANAjZu1qQND6i-17" value="实例化前" style="whiteSpace=wrap;html=1;rounded=1;" vertex="1" parent="1">
          <mxGeometry x="530" y="780" width="120" height="60" as="geometry" />
        </mxCell>
        <mxCell id="ljPQky6ANAjZu1qQND6i-22" value="" style="edgeStyle=orthogonalEdgeStyle;rounded=0;orthogonalLoop=1;jettySize=auto;html=1;" edge="1" parent="1" source="ljPQky6ANAjZu1qQND6i-19" target="ljPQky6ANAjZu1qQND6i-21">
          <mxGeometry relative="1" as="geometry" />
        </mxCell>
        <mxCell id="ljPQky6ANAjZu1qQND6i-19" value="推断构造方法" style="whiteSpace=wrap;html=1;rounded=1;" vertex="1" parent="1">
          <mxGeometry x="530" y="640" width="120" height="60" as="geometry" />
        </mxCell>
        <mxCell id="ljPQky6ANAjZu1qQND6i-24" value="" style="edgeStyle=orthogonalEdgeStyle;rounded=0;orthogonalLoop=1;jettySize=auto;html=1;" edge="1" parent="1" source="ljPQky6ANAjZu1qQND6i-21" target="ljPQky6ANAjZu1qQND6i-23">
          <mxGeometry relative="1" as="geometry" />
        </mxCell>
        <mxCell id="ljPQky6ANAjZu1qQND6i-21" value="实例化" style="whiteSpace=wrap;html=1;rounded=1;" vertex="1" parent="1">
          <mxGeometry x="530" y="500" width="120" height="60" as="geometry" />
        </mxCell>
        <mxCell id="ljPQky6ANAjZu1qQND6i-26" value="" style="edgeStyle=orthogonalEdgeStyle;rounded=0;orthogonalLoop=1;jettySize=auto;html=1;" edge="1" parent="1" source="ljPQky6ANAjZu1qQND6i-23" target="ljPQky6ANAjZu1qQND6i-25">
          <mxGeometry relative="1" as="geometry" />
        </mxCell>
        <mxCell id="ljPQky6ANAjZu1qQND6i-23" value="BeanDefinition的后置处理" style="whiteSpace=wrap;html=1;rounded=1;" vertex="1" parent="1">
          <mxGeometry x="530" y="360" width="120" height="60" as="geometry" />
        </mxCell>
        <mxCell id="ljPQky6ANAjZu1qQND6i-28" value="" style="edgeStyle=orthogonalEdgeStyle;rounded=0;orthogonalLoop=1;jettySize=auto;html=1;" edge="1" parent="1" source="ljPQky6ANAjZu1qQND6i-25" target="ljPQky6ANAjZu1qQND6i-27">
          <mxGeometry relative="1" as="geometry" />
        </mxCell>
        <mxCell id="ljPQky6ANAjZu1qQND6i-25" value="填充属性" style="whiteSpace=wrap;html=1;rounded=1;" vertex="1" parent="1">
          <mxGeometry x="730" y="360" width="120" height="60" as="geometry" />
        </mxCell>
        <mxCell id="ljPQky6ANAjZu1qQND6i-30" value="" style="edgeStyle=orthogonalEdgeStyle;rounded=0;orthogonalLoop=1;jettySize=auto;html=1;" edge="1" parent="1" source="ljPQky6ANAjZu1qQND6i-27" target="ljPQky6ANAjZu1qQND6i-29">
          <mxGeometry relative="1" as="geometry" />
        </mxCell>
        <mxCell id="ljPQky6ANAjZu1qQND6i-27" value="执行Aware" style="whiteSpace=wrap;html=1;rounded=1;" vertex="1" parent="1">
          <mxGeometry x="730" y="500" width="120" height="60" as="geometry" />
        </mxCell>
        <mxCell id="ljPQky6ANAjZu1qQND6i-32" value="" style="edgeStyle=orthogonalEdgeStyle;rounded=0;orthogonalLoop=1;jettySize=auto;html=1;" edge="1" parent="1" source="ljPQky6ANAjZu1qQND6i-29" target="ljPQky6ANAjZu1qQND6i-31">
          <mxGeometry relative="1" as="geometry" />
        </mxCell>
        <mxCell id="ljPQky6ANAjZu1qQND6i-29" value="初始化前" style="whiteSpace=wrap;html=1;rounded=1;" vertex="1" parent="1">
          <mxGeometry x="730" y="640" width="120" height="60" as="geometry" />
        </mxCell>
        <mxCell id="ljPQky6ANAjZu1qQND6i-34" value="" style="edgeStyle=orthogonalEdgeStyle;rounded=0;orthogonalLoop=1;jettySize=auto;html=1;" edge="1" parent="1" source="ljPQky6ANAjZu1qQND6i-31" target="ljPQky6ANAjZu1qQND6i-33">
          <mxGeometry relative="1" as="geometry" />
        </mxCell>
        <mxCell id="ljPQky6ANAjZu1qQND6i-31" value="初始化" style="whiteSpace=wrap;html=1;rounded=1;" vertex="1" parent="1">
          <mxGeometry x="730" y="780" width="120" height="60" as="geometry" />
        </mxCell>
        <mxCell id="ljPQky6ANAjZu1qQND6i-33" value="初始化后" style="whiteSpace=wrap;html=1;rounded=1;" vertex="1" parent="1">
          <mxGeometry x="730" y="920" width="120" height="60" as="geometry" />
        </mxCell>
      </root>
    </mxGraphModel>
  </diagram>
</mxfile>
